<svg width="20" height="20" viewBox="0 0 20 20" fill="none" xmlns="http://www.w3.org/2000/svg">
<path fill-rule="evenodd" clip-rule="evenodd" d="M6.2499 2.5C4.17883 2.5 2.4999 4.17893 2.4999 6.25V13.75C2.4999 15.8211 4.17883 17.5 6.2499 17.5H13.7499C15.821 17.5 17.4999 15.8211 17.4999 13.75V6.25C17.4999 4.17893 15.821 2.5 13.7499 2.5H6.2499ZM7.2158 6.875H9.03396C9.22227 6.875 9.3749 7.02763 9.3749 7.21591V9.03406C9.3749 9.22238 9.22227 9.375 9.03396 9.375H7.2158C7.02753 9.375 6.8749 9.22238 6.8749 9.03406V7.21591C6.8749 7.02763 7.02753 6.875 7.2158 6.875ZM10.9658 6.875H12.784C12.9723 6.875 13.1249 7.02763 13.1249 7.21591V9.03406C13.1249 9.22238 12.9723 9.375 12.784 9.375H10.9658C10.7775 9.375 10.6249 9.22238 10.6249 9.03406V7.21591C10.6249 7.02763 10.7775 6.875 10.9658 6.875ZM9.03396 10.625H7.2158C7.02753 10.625 6.8749 10.7776 6.8749 10.9659V12.7841C6.8749 12.9724 7.02753 13.125 7.2158 13.125H9.03396C9.22227 13.125 9.3749 12.9724 9.3749 12.7841V10.9659C9.3749 10.7776 9.22227 10.625 9.03396 10.625ZM10.9658 10.625H12.784C12.9723 10.625 13.1249 10.7776 13.1249 10.9659V12.7841C13.1249 12.9724 12.9723 13.125 12.784 13.125H10.9658C10.7775 13.125 10.6249 12.9724 10.6249 12.7841V10.9659C10.6249 10.7776 10.7775 10.625 10.9658 10.625Z" fill="#63637B"/>
</svg>