<svg width="20" height="20" viewBox="0 0 20 20" fill="none" xmlns="http://www.w3.org/2000/svg">
<path d="M4.40806 17.6257H15.5919C17.3872 17.6257 18.3333 16.6877 18.3333 14.9167V5.09137C18.3333 3.32039 17.3872 2.37425 15.5919 2.37425H4.40806C2.6209 2.37425 1.66667 3.32039 1.66667 5.09137V14.9167C1.66667 16.6877 2.6209 17.6257 4.40806 17.6257ZM4.46466 15.8305C3.81773 15.8305 3.47 15.507 3.47 14.8197V7.47695C3.47 6.79767 3.81773 6.4742 4.46466 6.4742H15.5273C16.1742 6.4742 16.53 6.79767 16.53 7.47695V14.8197C16.53 15.507 16.1742 15.8305 15.5273 15.8305H4.46466ZM8.45949 9.19941H8.9366C9.22772 9.19941 9.32476 9.11046 9.32476 8.81934V8.34222C9.32476 8.0511 9.22772 7.96215 8.9366 7.96215H8.45949C8.16837 7.96215 8.07133 8.0511 8.07133 8.34222V8.81934C8.07133 9.11046 8.16837 9.19941 8.45949 9.19941ZM11.0715 9.19941H11.5486C11.8397 9.19941 11.9368 9.11046 11.9368 8.81934V8.34222C11.9368 8.0511 11.8397 7.96215 11.5486 7.96215H11.0715C10.7804 7.96215 10.6833 8.0511 10.6833 8.34222V8.81934C10.6833 9.11046 10.7804 9.19941 11.0715 9.19941ZM13.6835 9.19941H14.1606C14.4517 9.19941 14.5569 9.11046 14.5569 8.81934V8.34222C14.5569 8.0511 14.4517 7.96215 14.1606 7.96215H13.6835C13.3924 7.96215 13.2953 8.0511 13.2953 8.34222V8.81934C13.2953 9.11046 13.3924 9.19941 13.6835 9.19941ZM5.84749 11.771H6.3246C6.61572 11.771 6.71276 11.682 6.71276 11.3909V10.9138C6.71276 10.6227 6.61572 10.5337 6.3246 10.5337H5.84749C5.55637 10.5337 5.45124 10.6227 5.45124 10.9138V11.3909C5.45124 11.682 5.55637 11.771 5.84749 11.771ZM8.45949 11.771H8.9366C9.22772 11.771 9.32476 11.682 9.32476 11.3909V10.9138C9.32476 10.6227 9.22772 10.5337 8.9366 10.5337H8.45949C8.16837 10.5337 8.07133 10.6227 8.07133 10.9138V11.3909C8.07133 11.682 8.16837 11.771 8.45949 11.771ZM11.0715 11.771H11.5486C11.8397 11.771 11.9368 11.682 11.9368 11.3909V10.9138C11.9368 10.6227 11.8397 10.5337 11.5486 10.5337H11.0715C10.7804 10.5337 10.6833 10.6227 10.6833 10.9138V11.3909C10.6833 11.682 10.7804 11.771 11.0715 11.771ZM13.6835 11.771H14.1606C14.4517 11.771 14.5569 11.682 14.5569 11.3909V10.9138C14.5569 10.6227 14.4517 10.5337 14.1606 10.5337H13.6835C13.3924 10.5337 13.2953 10.6227 13.2953 10.9138V11.3909C13.2953 11.682 13.3924 11.771 13.6835 11.771ZM5.84749 14.3425H6.3246C6.61572 14.3425 6.71276 14.2536 6.71276 13.9625V13.4854C6.71276 13.1942 6.61572 13.1053 6.3246 13.1053H5.84749C5.55637 13.1053 5.45124 13.1942 5.45124 13.4854V13.9625C5.45124 14.2536 5.55637 14.3425 5.84749 14.3425ZM8.45949 14.3425H8.9366C9.22772 14.3425 9.32476 14.2536 9.32476 13.9625V13.4854C9.32476 13.1942 9.22772 13.1053 8.9366 13.1053H8.45949C8.16837 13.1053 8.07133 13.1942 8.07133 13.4854V13.9625C8.07133 14.2536 8.16837 14.3425 8.45949 14.3425ZM11.0715 14.3425H11.5486C11.8397 14.3425 11.9368 14.2536 11.9368 13.9625V13.4854C11.9368 13.1942 11.8397 13.1053 11.5486 13.1053H11.0715C10.7804 13.1053 10.6833 13.1942 10.6833 13.4854V13.9625C10.6833 14.2536 10.7804 14.3425 11.0715 14.3425Z" fill="#63637B"/>
</svg>