<svg width="24" height="24" viewBox="0 0 24 24" fill="none" xmlns="http://www.w3.org/2000/svg">
<path fill-rule="evenodd" clip-rule="evenodd" d="M12 4.5C16.1421 4.5 19.5 7.85787 19.5 12C19.5 16.1421 16.1421 19.5 12 19.5C7.85787 19.5 4.5 16.1421 4.5 12C4.5 7.85787 7.85787 4.5 12 4.5ZM12 7.71429C11.5263 7.71429 11.1964 9.41335 11.1964 9.85714V12C11.1964 12.4438 11.5562 12.8036 12 12.8036L13.0451 12.8029C14.1733 12.7965 17.3571 12.7282 17.3571 12C17.3571 11.1964 13.2474 11.1964 12.8036 11.1964V9.85714C12.8036 9.41335 12.4737 7.71429 12 7.71429Z" fill="#63637B"/>
</svg>