<svg width="24" height="24" viewBox="0 0 24 24" fill="none" xmlns="http://www.w3.org/2000/svg">
<path fill-rule="evenodd" clip-rule="evenodd" d="M17.6023 15.8553L19.8784 7.6348C20.2471 6.30289 19.7389 5.3965 18.4191 5.03106L12.6635 3.43747C11.3437 3.07203 10.4416 3.58795 10.0729 4.91986L9.61943 6.55751L9.31944 7.64096L7.79678 13.1403C7.42633 14.4783 7.9302 15.377 9.25608 15.7441L15.0116 17.3377C16.3375 17.7048 17.2318 17.1932 17.6023 15.8553ZM8.55782 7.64096L6.3175 7.57461C5.82164 7.56365 5.61202 7.68999 5.52269 7.77621C5.43178 7.86396 5.29484 8.07496 5.28363 8.58213L5.09515 17.1098C5.08379 17.6237 5.21162 17.8388 5.29599 17.9278C5.37879 18.0151 5.58087 18.1509 6.0835 18.162L12.0541 18.294C12.5567 18.3051 12.7646 18.1783 12.8512 18.0948C12.9257 18.0229 13.0351 17.8625 13.0742 17.5048L14.1212 17.8635C13.9223 18.8875 13.2091 19.4096 12.03 19.3835L6.05942 19.2516C4.68399 19.2212 3.97493 18.4737 4.0056 17.0857L4.19408 8.55805C4.22462 7.17637 4.9724 6.4548 6.34158 6.48507L8.86707 6.54985L8.55782 7.64096Z" fill="#292936"/>
</svg>