
<svg width="24" height="24" viewBox="0 0 24 24" fill="none" xmlns="http://www.w3.org/2000/svg">
<rect width="24" height="24" rx="6" fill="#E8ECFF"/>
<path fill-rule="evenodd" clip-rule="evenodd" d="M15.3333 7C15.3333 7.88405 14.9821 8.7319 14.357 9.35702C13.7319 9.98214 12.8841 10.3333 12 10.3333C11.1159 10.3333 10.2681 9.98214 9.64298 9.35702C9.01785 8.7319 8.66667 7.88405 8.66667 7C8.66667 6.11594 9.01785 5.2681 9.64298 4.64297C10.2681 4.01785 11.1159 3.66666 12 3.66666C12.8841 3.66666 13.7319 4.01785 14.357 4.64297C14.9821 5.2681 15.3333 6.11594 15.3333 7ZM17 15.3333V19.5H7V15.3333C7 14.75 7.16667 14.1667 7.41667 13.6667C8 12.6667 9.08333 12 10.3333 12H13.6667C14.9167 12 16 12.6667 16.5833 13.6667C16.8333 14.1667 17 14.75 17 15.3333ZM2.83333 17V19.5H5.33333V13.75C3.91667 14.1667 2.83333 15.4167 2.83333 17ZM18.6667 13.75V19.5H21.1667V17C21.1667 15.4167 20.0833 14.1667 18.6667 13.75ZM18.6667 7C17.25 7 16.1667 8.08333 16.1667 9.5C16.1667 10.9167 17.25 12 18.6667 12C20.0833 12 21.1667 10.9167 21.1667 9.5C21.1667 8.08333 20.0833 7 18.6667 7ZM2.83333 9.5C2.83333 8.08333 3.91667 7 5.33333 7C6.75 7 7.83333 8.08333 7.83333 9.5C7.83333 10.9167 6.75 12 5.33333 12C3.91667 12 2.83333 10.9167 2.83333 9.5Z" fill="#506CF7"/>
</svg>